<svg width="63" height="63" viewBox="0 0 63 63" fill="none" xmlns="http://www.w3.org/2000/svg">
<g filter="url(#filter0_d_5_61)">
<path d="M11.9445 15.8889H13.7778V19.5556H5.22224C4.73946 19.5556 4.29946 19.8428 4.1039 20.2828C3.90835 20.7289 3.9939 21.2422 4.31779 21.6028C7.37335 24.9639 7.37335 30.0361 4.31779 33.3972C3.9939 33.7578 3.90835 34.2711 4.1039 34.7172C4.29946 35.1572 4.73946 35.4444 5.22224 35.4444H51.0555C55.4372 35.4444 59 31.8817 59 27.5C59 23.1183 55.4372 19.5556 51.0555 19.5556H26V15.8889H57.7778C58.2605 15.8889 58.7005 15.6017 58.8961 15.1617C59.0916 14.7156 59.0061 14.2022 58.6822 13.8417C55.6267 10.4806 55.6267 5.40833 58.6822 2.04722C59.0061 1.68667 59.0916 1.17333 58.8961 0.727222C58.7997 0.511065 58.6428 0.327404 58.4444 0.198374C58.246 0.069344 58.0144 0.000451884 57.7778 0H11.9445C7.56279 0 4.00002 3.56278 4.00002 7.94444C4.00002 12.3261 7.56279 15.8889 11.9445 15.8889ZM51.0555 22C54.0867 22 56.5555 24.4689 56.5555 27.5C56.5555 30.5311 54.0867 33 51.0555 33H7.61168C8.56103 31.3224 9.05998 29.4276 9.05998 27.5C9.05998 25.5724 8.56103 23.6776 7.61168 22H13.7778V26.8889C13.7778 27.1159 13.841 27.3384 13.9603 27.5315C14.0797 27.7245 14.2504 27.8806 14.4534 27.9821C14.6564 28.0836 14.8837 28.1266 15.1098 28.1062C15.3358 28.0858 15.5518 28.0029 15.7333 27.8667L19.8889 24.75L24.0444 27.8667C24.2583 28.0256 24.5211 28.1111 24.7778 28.1111C25.1019 28.1111 25.4128 27.9823 25.642 27.7531C25.8712 27.5239 26 27.213 26 26.8889V22H51.0555ZM16.2222 24.4444V9.77778H23.5556V24.4444L20.6222 22.2444C20.4022 22.0794 20.1456 22 19.8889 22C19.6322 22 19.3756 22.0794 19.1556 22.2444L16.2222 24.4444ZM11.9445 2.44444H55.3883C54.439 4.12206 53.94 6.01684 53.94 7.94444C53.94 9.87205 54.439 11.7668 55.3883 13.4444H26V8.55556C26 7.88333 25.45 7.33333 24.7778 7.33333H15C14.3278 7.33333 13.7778 7.88333 13.7778 8.55556V13.4444H11.9445C8.91335 13.4444 6.44446 10.9756 6.44446 7.94444C6.44446 4.91333 8.91335 2.44444 11.9445 2.44444ZM58.8961 39.8383C58.7997 39.6222 58.6428 39.4385 58.4444 39.3095C58.246 39.1805 58.0144 39.1116 57.7778 39.1111H11.9445C7.56279 39.1111 4.00002 42.6739 4.00002 47.0556C4.00002 51.4372 7.56279 55 11.9445 55H57.7778C58.2605 55 58.7005 54.7128 58.8961 54.2728C59.0916 53.8267 59.0061 53.3133 58.6822 52.9528C55.6267 49.5917 55.6267 44.5194 58.6822 41.1583C59.0061 40.7978 59.0916 40.2844 58.8961 39.8383ZM55.3883 52.5556H11.9445C8.91335 52.5556 6.44446 50.0867 6.44446 47.0556C6.44446 44.0244 8.91335 41.5556 11.9445 41.5556H55.3883C54.439 43.2332 53.94 45.128 53.94 47.0556C53.94 48.9832 54.439 50.8779 55.3883 52.5556Z" fill="#404643"/>
</g>
<defs>
<filter id="filter0_d_5_61" x="0" y="0" width="63" height="63" filterUnits="userSpaceOnUse" color-interpolation-filters="sRGB">
<feFlood flood-opacity="0" result="BackgroundImageFix"/>
<feColorMatrix in="SourceAlpha" type="matrix" values="0 0 0 0 0 0 0 0 0 0 0 0 0 0 0 0 0 0 127 0" result="hardAlpha"/>
<feOffset dy="4"/>
<feGaussianBlur stdDeviation="2"/>
<feComposite in2="hardAlpha" operator="out"/>
<feColorMatrix type="matrix" values="0 0 0 0 0 0 0 0 0 0 0 0 0 0 0 0 0 0 0.25 0"/>
<feBlend mode="normal" in2="BackgroundImageFix" result="effect1_dropShadow_5_61"/>
<feBlend mode="normal" in="SourceGraphic" in2="effect1_dropShadow_5_61" result="shape"/>
</filter>
</defs>
</svg>
